<svg xmlns="http://www.w3.org/2000/svg" viewBox="0 0 759.57 284.32"><g id="Layer_2" data-name="Layer 2"><g id="Layer_1-2" data-name="Layer 1"><path d="M265,75.45c-18.78,8.64-37.35,17.21-56,25.8-11.36-18.35-27.18-30.81-48-36.41a76.39,76.39,0,0,0-48,2.45C81.8,79.1,59.37,110.07,61.77,147.62a79.38,79.38,0,0,0,56.8,71.31,76.21,76.21,0,0,0,54.29-3.65c17.55-7.87,30.44-20.71,39.2-38.06,18,10,35.9,19.88,54.11,30-2.57,4.31-4.87,8.58-7.53,12.62-20.18,30.56-47.89,50.74-83.3,60.16A133.72,133.72,0,0,1,133,284.07c-28.24-1.66-53.86-10.88-76.38-28.07Q15,224.25,3.4,172.94a137,137,0,0,1-3.15-38.6C2,104.3,12,77.24,30.8,53.61A139,139,0,0,1,106.19,4.42,130.84,130.84,0,0,1,148.51.29C188.58,3,221.74,19.69,248,50.11A135.3,135.3,0,0,1,264.23,73.9c.24.42.42.86.75,1.55" fill="#231f20"/><path d="M278.67,101.85q13.81,47.22,27.49,94.26c-6.32-.8-106.48-50.14-109.11-53.69,1.91-2.27,70.56-36.4,81.62-40.57" fill="#313c97"/><path d="M408.69,171.38a46.86,46.86,0,0,1-2.16,12.35,36,36,0,0,1-7.75,13.91,40.35,40.35,0,0,1-14,10.15q-8.43,3.79-20.5,3.79-19.33,0-31.15-11.82t-11.83-30.91q0-19.24,12.72-30.86t31.15-11.62a50.31,50.31,0,0,1,18.55,3.34A36.94,36.94,0,0,1,398.25,140,42.37,42.37,0,0,1,407,156Q408.7,161.67,408.69,171.38Zm-20.39-1.47q0-11.08-5.83-18.43t-17.33-7.33A22.38,22.38,0,0,0,348.35,151q-6.69,6.89-6.69,18.22t6.48,18.14a21.61,21.61,0,0,0,16.35,6.81,24.18,24.18,0,0,0,12.68-3.34,21.29,21.29,0,0,0,8.36-9A26.75,26.75,0,0,0,388.3,169.91Z" fill="#231f20"/><path d="M509.15,82.82v126.4H489.82V197.88a35.08,35.08,0,0,1-11,9.46q-6.68,3.75-16.39,3.75-17.28,0-28.5-11.58t-11.21-30.33q0-18.68,11.42-30.54a37.58,37.58,0,0,1,28.21-11.86,35.56,35.56,0,0,1,16.56,3.75,32.21,32.21,0,0,1,10.19,8.56V82.82Zm-19,85.46q0-10.18-6.53-16.67t-16.88-6.49A22.46,22.46,0,0,0,450,151.89q-6.61,6.77-6.61,17.86,0,10.35,6.77,17.08a23.06,23.06,0,0,0,17,6.73,21.86,21.86,0,0,0,16.43-6.93Q490.15,179.7,490.15,168.28Z" fill="#231f20"/><path d="M615.73,171.38a46.94,46.94,0,0,1-2.17,12.35,36,36,0,0,1-7.74,13.91,40.44,40.44,0,0,1-14,10.15q-8.43,3.79-20.51,3.79-19.32,0-31.14-11.82t-11.83-30.91q0-19.24,12.72-30.86t31.15-11.62a50.31,50.31,0,0,1,18.55,3.34A37,37,0,0,1,605.29,140,42.37,42.37,0,0,1,614,156Q615.73,161.67,615.73,171.38Zm-20.39-1.47q0-11.08-5.83-18.43t-17.33-7.33a22.42,22.42,0,0,0-16.8,6.89q-6.68,6.89-6.68,18.22t6.48,18.14a21.61,21.61,0,0,0,16.35,6.81,24.18,24.18,0,0,0,12.68-3.34,21.29,21.29,0,0,0,8.36-9A26.88,26.88,0,0,0,595.34,169.91Z" fill="#231f20"/><path d="M644.67,88.94a12.46,12.46,0,1,1-8.84,3.67A12,12,0,0,1,644.67,88.94Zm10,40v80.32H634.64V128.9Z" fill="#231f20"/><path d="M759.57,82.82v126.4H740.24V197.88a35.08,35.08,0,0,1-11,9.46q-6.69,3.75-16.39,3.75-17.28,0-28.5-11.58t-11.21-30.33q0-18.68,11.42-30.54a37.58,37.58,0,0,1,28.21-11.86,35.49,35.49,0,0,1,16.55,3.75,32.13,32.13,0,0,1,10.2,8.56V82.82Zm-19,85.46q0-10.18-6.53-16.67t-16.88-6.49a22.46,22.46,0,0,0-16.79,6.77q-6.61,6.77-6.61,17.86,0,10.35,6.77,17.08a23,23,0,0,0,17,6.73,21.86,21.86,0,0,0,16.43-6.93Q740.57,179.7,740.57,168.28Z" fill="#231f20"/></g></g></svg>